<svg xmlns="http://www.w3.org/2000/svg" viewBox="0 0 1440 320"><path fill="#000" fill-opacity="1" d="M0,32L17.1,37.3C34.3,43,69,53,103,74.7C137.1,96,171,128,206,165.3C240,203,274,245,309,240C342.9,235,377,181,411,149.3C445.7,117,480,107,514,117.3C548.6,128,583,160,617,176C651.4,192,686,192,720,160C754.3,128,789,64,823,48C857.1,32,891,64,926,112C960,160,994,224,1029,218.7C1062.9,213,1097,139,1131,133.3C1165.7,128,1200,192,1234,208C1268.6,224,1303,192,1337,170.7C1371.4,149,1406,139,1423,133.3L1440,128L1440,320L1422.9,320C1405.7,320,1371,320,1337,320C1302.9,320,1269,320,1234,320C1200,320,1166,320,1131,320C1097.1,320,1063,320,1029,320C994.3,320,960,320,926,320C891.4,320,857,320,823,320C788.6,320,754,320,720,320C685.7,320,651,320,617,320C582.9,320,549,320,514,320C480,320,446,320,411,320C377.1,320,343,320,309,320C274.3,320,240,320,206,320C171.4,320,137,320,103,320C68.6,320,34,320,17,320L0,320Z"></path></svg>